<svg xmlns="http://www.w3.org/2000/svg" width="34" height="34" viewBox="0 0 34 34">
    <g fill="none" fill-rule="evenodd">
        <path fill="#EAEAEA" d="M0 0L670 0 670 5953 0 5953z" transform="translate(-152 -5327)"/>
        <g>
            <path fill="#FFF" d="M0 852L480 852 480 5405 0 5405z" transform="translate(-152 -5327) translate(95 24) matrix(1 0 0 -1 0 6257)"/>
            <g transform="translate(-152 -5327) translate(95 24) translate(15 5295)">
                <rect width="217" height="49" x=".5" y=".5" stroke="#CECECE" rx="5"/>
                <g stroke="#666" stroke-width="1.5" transform="translate(44 14)">
                    <path stroke-linejoin="round" d="M20.314 20H2c-1.105 0-2-.895-2-2V2C0 .895.895 0 2 0h23.273c1.104 0 2 .895 2 2 .09 5.195.09 8.195 0 9"/>
                    <path stroke-linejoin="round" d="M.016 1l11.922 8.226c1.023.706 2.375.708 3.4.005L27.34 1h0"/>
                    <circle cx="25.136" cy="16.5" r="5.5"/>
                    <path stroke-linecap="round" d="M22.636 16.5L27.636 16.5"/>
                </g>
            </g>
            <path stroke="#E02020" stroke-width="4" d="M2 5212H478V5810H2z" transform="translate(-152 -5327) translate(95 24)"/>
        </g>
    </g>
</svg>
