<svg xmlns="http://www.w3.org/2000/svg" width="170" height="170" viewBox="0 0 170 170">
    <g fill="none" fill-rule="evenodd">
        <path fill="#EAEAEA" d="M0 0L670 0 670 5953 0 5953z" transform="translate(-250 -1959)"/>
        <g>
            <path fill="#FFF" d="M0 852L480 852 480 5405 0 5405z" transform="translate(-250 -1959) translate(95 24) matrix(1 0 0 -1 0 6257)"/>
            <g stroke="#3D3D3D" transform="translate(-250 -1959) translate(95 24) translate(155 1935)">
                <circle cx="85" cy="85" r="84.5"/>
                <path d="M136.35 73.69c-1.332-1.312-3.11-3.669-3.39-6.653-.074-.785-.207-1.553-.393-2.285h-.002.003c-1.304-5.19-5.242-9.06-10.055-10.72-.354-.12-.71-.26-1.073-.42-1.834-.829-3.692-2.243-4.816-4.248-3.023-5.383-8.953-8.59-15.732-7.849-2.797.312-5.557-.388-7.374-1.605-2.553-1.712-5.431-2.784-8.915-2.784-3.481 0-6.362 1.072-8.916 2.784-1.814 1.217-4.578 1.917-7.37 1.605-6.783-.741-12.713 2.466-15.739 7.85-1.341 2.401-3.713 3.938-5.889 4.667-5.398 1.81-9.85 6.676-10.443 13.005-.282 2.983-2.06 5.34-3.39 6.654-3.628 3.578-5.139 7.766-5.139 12.048v.21h0c.098 8.418 6.465 15.344 14.71 16.46h0c.763.105 1.542.156 2.337.156h24.483c2.323.005 4.214 1.905 4.214 4.2v.98c0 3.859-3.868 4.377-3.868 4.377l-19.91 3.376c-.705.118-1.312.59-1.312 1.283v2.414h72.466v-2.414c0-.692-.608-1.165-1.314-1.283l-19.909-3.376s-3.863-.518-3.863-4.378v-.978c0-2.296 1.883-4.196 4.209-4.2h24.484c9.419 0 17.05-7.535 17.05-16.829 0-4.282-1.516-8.47-5.144-12.046"/>
            </g>
        </g>
    </g>
</svg>
