<svg xmlns="http://www.w3.org/2000/svg" width="34" height="34" viewBox="0 0 34 34">
    <g fill="none" fill-rule="evenodd">
        <path fill="#EAEAEA" d="M0 0L670 0 670 5953 0 5953z" transform="translate(-358 -5327)"/>
        <g>
            <path fill="#FFF" d="M0 852L480 852 480 5405 0 5405z" transform="translate(-358 -5327) translate(95 24) matrix(1 0 0 -1 0 6257)"/>
            <g transform="translate(-358 -5327) translate(95 24) translate(247 5295)">
                <rect width="217" height="49" x=".5" y=".5" stroke="#CECECE" rx="5"/>
                <g stroke="#666" stroke-linecap="round" stroke-linejoin="round" stroke-width="1.5">
                    <path d="M11.247 27.66L6.07 24.128c-3.05-2.082-4.95-5.398-5.157-9.003L.355 5.421c-.05-.9.69-1.656 1.62-1.656 3.224 0 6.349-1.079 8.843-3.052l.41-.325c.655-.517 1.595-.517 2.25 0l.41.325c2.494 1.973 5.619 3.052 8.842 3.052.932 0 1.672.757 1.62 1.656l-.557 9.703c-.207 3.605-2.106 6.92-5.157 9.003L13.46 27.66c-.663.452-1.549.452-2.212 0z" transform="translate(20 11)"/>
                    <path d="M18.353 14c0 3.314-2.686 6-6 6s-6-2.686-6-6 2.686-6 6-6 6 2.686 6 6z" transform="translate(20 11)"/>
                    <path d="M9.353 14.416L11.426 16 15.353 13" transform="translate(20 11)"/>
                </g>
            </g>
            <path stroke="#E02020" stroke-width="4" d="M2 5212H478V5810H2z" transform="translate(-358 -5327) translate(95 24)"/>
        </g>
    </g>
</svg>
