<svg xmlns="http://www.w3.org/2000/svg" width="100" height="100" viewBox="0 0 100 100">
    <g fill="none" fill-rule="evenodd">
        <path fill="#EAEAEA" d="M0 0L670 0 670 5953 0 5953z" transform="translate(-285 -1663)"/>
        <g>
            <path fill="#FFF" d="M0 852L480 852 480 5405 0 5405z" transform="translate(-285 -1663) translate(95 24) matrix(1 0 0 -1 0 6257)"/>
            <g stroke="#3D3D3D" transform="translate(-285 -1663) translate(95 24) translate(190 1639)">
                <circle cx="50" cy="50" r="49.5"/>
                <path d="M80.206 43.348c-.783-.773-1.83-2.159-1.994-3.914-.044-.462-.122-.914-.232-1.344h.001c-.767-3.053-3.083-5.33-5.915-6.307-.208-.07-.417-.152-.63-.247-1.08-.487-2.172-1.319-2.834-2.498-1.778-3.167-5.266-5.054-9.254-4.617-1.645.183-3.268-.228-4.337-.945-1.502-1.007-3.195-1.637-5.244-1.637-2.048 0-3.743.63-5.245 1.637-1.067.717-2.693 1.128-4.335.945-3.99-.437-7.479 1.45-9.259 4.617-.789 1.413-2.184 2.317-3.464 2.745-3.175 1.065-5.794 3.928-6.143 7.65-.166 1.755-1.211 3.141-1.993 3.915-2.135 2.104-3.024 4.568-3.024 7.087v.123h0c.058 4.952 3.803 9.026 8.653 9.683h0c.449.061.907.092 1.375.092h14.402c1.366.002 2.478 1.12 2.478 2.47v.576c0 2.27-2.275 2.575-2.275 2.575L29.226 67.94c-.416.07-.772.348-.772.754v1.42H71.08v-1.42c0-.406-.358-.685-.773-.754l-11.711-1.986s-2.273-.305-2.273-2.575v-.576c0-1.35 1.108-2.468 2.476-2.47h14.403c5.54 0 10.029-4.432 10.029-9.9 0-2.518-.892-4.982-3.026-7.085"/>
            </g>
        </g>
    </g>
</svg>
